<svg width="24" height="18" viewBox="0 0 24 18" fill="none" xmlns="http://www.w3.org/2000/svg">
<path d="M1.64075 18.0001H5.46917V8.74295L0 4.62866V16.3608C0 17.2608 0.739946 18.0001 1.64075 18.0001Z" fill="#4285F4"/>
<path d="M18.563 18.0001H22.3914C23.2922 18.0001 24.0322 17.2608 24.0322 16.3608V4.62866L18.563 8.7108" fill="#34A853"/>
<path d="M18.563 1.63931V8.74288L24.0322 4.66074V2.44288C24.0322 0.417883 21.7158 -0.73926 20.1072 0.482169" fill="#FBBC04"/>
<path d="M5.46917 8.74298V1.6394L12.0322 6.55726L18.563 1.6394V8.74298L12 13.6287" fill="#EA4335"/>
<path d="M0 2.44297V4.62868L5.46917 8.71082V1.63939L3.92493 0.482252C2.31635 -0.707034 0 0.450109 0 2.44297Z" fill="#C5221F"/>
</svg>
