<svg width="32" height="33" viewBox="0 0 32 33" fill="none" xmlns="http://www.w3.org/2000/svg">
<path d="M10.4 3.49805H21.6C25.8667 3.49805 29.3333 6.96471 29.3333 11.2314V22.4314C29.3333 24.4824 28.5186 26.4494 27.0683 27.8997C25.618 29.35 23.651 30.1647 21.6 30.1647H10.4C6.13332 30.1647 2.66666 26.698 2.66666 22.4314V11.2314C2.66666 9.18037 3.48142 7.21337 4.9317 5.76309C6.38198 4.31281 8.34898 3.49805 10.4 3.49805ZM10.1333 6.16471C8.86028 6.16471 7.63939 6.67043 6.73921 7.5706C5.83904 8.47078 5.33332 9.69167 5.33332 10.9647V22.698C5.33332 25.3514 7.47999 27.498 10.1333 27.498H21.8667C23.1397 27.498 24.3606 26.9923 25.2608 26.0922C26.1609 25.192 26.6667 23.9711 26.6667 22.698V10.9647C26.6667 8.31138 24.52 6.16471 21.8667 6.16471H10.1333ZM23 8.16471C23.442 8.16471 23.8659 8.34031 24.1785 8.65287C24.4911 8.96543 24.6667 9.38935 24.6667 9.83138C24.6667 10.2734 24.4911 10.6973 24.1785 11.0099C23.8659 11.3225 23.442 11.498 23 11.498C22.558 11.498 22.134 11.3225 21.8215 11.0099C21.5089 10.6973 21.3333 10.2734 21.3333 9.83138C21.3333 9.38935 21.5089 8.96543 21.8215 8.65287C22.134 8.34031 22.558 8.16471 23 8.16471ZM16 10.1647C17.7681 10.1647 19.4638 10.8671 20.714 12.1173C21.9643 13.3676 22.6667 15.0633 22.6667 16.8314C22.6667 18.5995 21.9643 20.2952 20.714 21.5454C19.4638 22.7957 17.7681 23.498 16 23.498C14.2319 23.498 12.5362 22.7957 11.2859 21.5454C10.0357 20.2952 9.33332 18.5995 9.33332 16.8314C9.33332 15.0633 10.0357 13.3676 11.2859 12.1173C12.5362 10.8671 14.2319 10.1647 16 10.1647ZM16 12.8314C14.9391 12.8314 13.9217 13.2528 13.1716 14.003C12.4214 14.7531 12 15.7705 12 16.8314C12 17.8922 12.4214 18.9097 13.1716 19.6598C13.9217 20.41 14.9391 20.8314 16 20.8314C17.0609 20.8314 18.0783 20.41 18.8284 19.6598C19.5786 18.9097 20 17.8922 20 16.8314C20 15.7705 19.5786 14.7531 18.8284 14.003C18.0783 13.2528 17.0609 12.8314 16 12.8314Z" fill="#7051EF"/>
</svg>
