<svg width="32" height="33" viewBox="0 0 32 33" fill="none" xmlns="http://www.w3.org/2000/svg">
<path d="M25.4 7.37812C24.1774 6.14359 22.7214 5.16474 21.1167 4.4986C19.512 3.83246 17.7908 3.49236 16.0533 3.49812C8.77334 3.49812 2.84 9.43145 2.84 16.7115C2.84 19.0448 3.45334 21.3115 4.6 23.3115L2.73334 30.1648L9.73334 28.3248C11.6667 29.3781 13.84 29.9381 16.0533 29.9381C23.3333 29.9381 29.2667 24.0048 29.2667 16.7248C29.2667 13.1915 27.8933 9.87145 25.4 7.37812ZM16.0533 27.6981C14.08 27.6981 12.1467 27.1648 10.4533 26.1648L10.0533 25.9248L5.89334 27.0181L7 22.9648L6.73334 22.5515C5.63673 20.8009 5.05457 18.7772 5.05334 16.7115C5.05334 10.6581 9.98667 5.72479 16.04 5.72479C18.9733 5.72479 21.7333 6.87145 23.8 8.95145C24.8235 9.96994 25.6346 11.1815 26.1862 12.5159C26.7378 13.8503 27.0189 15.2809 27.0133 16.7248C27.04 22.7781 22.1067 27.6981 16.0533 27.6981ZM22.08 19.4848C21.7467 19.3248 20.12 18.5248 19.8267 18.4048C19.52 18.2981 19.3067 18.2448 19.08 18.5648C18.8533 18.8981 18.2267 19.6448 18.04 19.8581C17.8533 20.0848 17.6533 20.1115 17.32 19.9381C16.9867 19.7781 15.92 19.4181 14.6667 18.2981C13.68 17.4181 13.0267 16.3381 12.8267 16.0048C12.64 15.6715 12.8 15.4981 12.9733 15.3248C13.12 15.1781 13.3067 14.9381 13.4667 14.7515C13.6267 14.5648 13.6933 14.4181 13.8 14.2048C13.9067 13.9781 13.8533 13.7915 13.7733 13.6315C13.6933 13.4715 13.0267 11.8448 12.76 11.1781C12.4933 10.5381 12.2133 10.6181 12.0133 10.6048H11.3733C11.1467 10.6048 10.8 10.6848 10.4933 11.0181C10.2 11.3515 9.34667 12.1515 9.34667 13.7781C9.34667 15.4048 10.5333 16.9781 10.6933 17.1915C10.8533 17.4181 13.0267 20.7515 16.3333 22.1781C17.12 22.5248 17.7333 22.7248 18.2133 22.8715C19 23.1248 19.72 23.0848 20.2933 23.0048C20.9333 22.9115 22.2533 22.2048 22.52 21.4315C22.8 20.6581 22.8 20.0048 22.7067 19.8581C22.6133 19.7115 22.4133 19.6448 22.08 19.4848Z" fill="#7051EF"/>
</svg>
