<svg width="32" height="33" viewBox="0 0 32 33" fill="none" xmlns="http://www.w3.org/2000/svg">
<path d="M9.25335 7.49808C9.25299 8.20532 8.9717 8.88346 8.47136 9.38331C7.97101 9.88315 7.29259 10.1638 6.58535 10.1634C5.8781 10.1631 5.19997 9.88177 4.70012 9.38142C4.20027 8.88107 3.91966 8.20266 3.92001 7.49541C3.92037 6.78817 4.20166 6.11003 4.70201 5.61018C5.20235 5.11034 5.88077 4.82972 6.58801 4.83008C7.29526 4.83043 7.97339 5.11172 8.47324 5.61207C8.97309 6.11242 9.2537 6.79083 9.25335 7.49808ZM9.33335 12.1381H4.00001V28.8314H9.33335V12.1381ZM17.76 12.1381H12.4533V28.8314H17.7067V20.0714C17.7067 15.1914 24.0667 14.7381 24.0667 20.0714V28.8314H29.3333V18.2581C29.3333 10.0314 19.92 10.3381 17.7067 14.3781L17.76 12.1381Z" fill="#7051EF"/>
</svg>
